<svg fill="none" height="470" viewBox="0 0 470 470" width="470" xmlns="http://www.w3.org/2000/svg" xmlns:xlink="http://www.w3.org/1999/xlink"><linearGradient id="a" gradientUnits="userSpaceOnUse" x1="-235" x2="235" y1="235" y2="705"><stop offset="0" stop-color="#be58cb"/><stop offset="1" stop-color="#f10e5a"/></linearGradient><circle cx="235" cy="235" fill="url(#a)" r="235"/><path clip-rule="evenodd" d="m230.625 201.331c-1.133 2.066-31.156 56.039-68.933 77.189-21.596 12.078-40.242 15.627-54.672 15.637-6.345.025-12.6809-.706-18.95-2.187-1.2867-7.685-2.3067-15.531-3.07-23.499 10.5665 3.579 36.81 8.753 71.643-10.742 34.069-19.069 62.625-70.309 62.912-70.825 1.48-2.551 33.736-57.638 69.056-77.406 26.843-15.0145 51.243-15.7383 67.226-13.6223 3.913 7.8453 7.492 16.0603 10.716 24.5973-10.806-3.078-40.082-8.54-72.902 9.815-31.89 17.85-62.719 70.517-63.026 71.043zm-59.126 117.595c37.776-21.124 67.799-75.098 68.932-77.168.307-.526 31.14-53.214 63.033-71.038 35.643-19.95 67.129-11.8 75.286-9.107-1.819-8.235-3.945-16.307-6.367-24.177-15.273-3.148-42.976-4.854-73.962 12.489-35.316 19.747-67.573 74.834-69.056 77.38-.287.532-28.75 51.711-62.913 70.831-40.096 22.44-68.8489 12.21-75.3555 9.329 1.844 8.46 4.011 16.749 6.49 24.825 6.3645 1.531 12.7995 2.288 19.2435 2.263 14.429.005 33.079-3.533 54.669-15.627zm9.807 40.427c37.779-21.14 67.796-75.113 68.932-77.178.304-.532 31.143-53.199 63.036-71.048 31.7-17.738 60.083-13.248 71.726-10.145-.757-7.801-1.778-15.538-3.06-23.18-15.333-3.108-42.896-4.713-73.716 12.534-35.313 19.753-67.572 74.835-69.049 77.386-.287.526-28.846 51.771-62.913 70.83-36.469 20.416-63.539 13.785-73.039 10.251 3.281 8.76 6.936 17.184 10.94 25.22 3.713.562 7.857.952 12.473.952 14.43 0 33.077-3.549 54.67-15.622zm-14.854-187.509c12.13 6.783 23.517 17.647 33.223 28.87 3.618-5.087 7.113-10.372 10.477-15.845-10.983-12.929-24.247-25.761-38.653-33.826-33.136-18.537-59.239-16.953-73.9125-13.343-2.479 8.074-4.6449 16.361-6.4866 24.819 6.5699-2.91 35.3091-13.095 75.3521 9.325zm137.012 127.415c-11.863-6.626-23.586-18.112-33.646-29.917-3.614 5.054-7.127 10.272-10.533 15.647 11.373 13.592 24.986 27.164 39.133 35.086 23.63 13.161 49.005 17.449 73.962 12.499 2.423-7.877 4.549-15.958 6.367-24.203-8.154 2.683-39.647 10.854-75.283-9.112zm-146.818-86.983c7.196 4.024 14.106 9.502 20.593 15.632 4.323-4.417 8.507-9.142 12.536-14.159-8.556-8.677-18.033-16.66-28.083-22.284-32.909-18.411-58.889-16.963-73.6188-13.405-1.2925 7.735-2.3172 15.567-3.0699 23.464 10.5832-3.6 36.8097-8.758 71.6427 10.752zm94.432 86.391c11.65 15.217 26.99 32.312 42.576 41.024 32.98 18.457 62.113 12.959 72.899 9.836-3.217 8.525-6.79 16.729-10.696 24.562-4.445.594-8.905.898-13.367.911-18.379.016-36.616-4.893-53.872-14.503-18.014-10.084-35.2-29.331-47.927-46.092 3.577-5.069 7.041-10.318 10.387-15.738z" fill="#f7f7f7" fill-rule="evenodd"/></svg>